<svg width="32" height="32" viewBox="0 0 32 32" fill="none" xmlns="http://www.w3.org/2000/svg">
    <path d="M9.66381 14.8236C9.52105 14.6372 9.31028 14.515 9.07761 14.4836C8.84494 14.4523 8.60934 14.5144 8.42235 14.6563C8.31234 14.7431 8.2236 14.8538 8.16291 14.9801L0.540492 30.2293C0.432532 30.4454 0.414799 30.6955 0.491191 30.9247C0.567583 31.1538 0.731847 31.3433 0.947878 31.4514C1.07415 31.5153 1.21376 31.5483 1.35526 31.5479H11.9752C12.1453 31.5522 12.313 31.5069 12.4577 31.4174C12.6024 31.3279 12.7179 31.1982 12.79 31.044C15.082 26.3098 13.6926 19.1119 9.66381 14.8236Z" fill="url(#paint0_linear_1_6087)"/>
    <path d="M15.2665 0.946659C13.3663 3.87073 12.2589 7.23855 12.0529 10.7197C11.8469 14.2009 12.5494 17.6758 14.0915 20.8036L19.2117 31.044C19.2873 31.1953 19.4036 31.3226 19.5475 31.4116C19.6914 31.5006 19.8573 31.5478 20.0265 31.5479H30.6443C30.764 31.5481 30.8826 31.5248 30.9933 31.4791C31.104 31.4334 31.2046 31.3663 31.2893 31.2816C31.3739 31.1969 31.4411 31.0963 31.4867 30.9857C31.5324 30.875 31.5558 30.7563 31.5555 30.6366C31.5556 30.4954 31.5234 30.356 31.4612 30.2292L16.8167 0.942371C16.7472 0.795618 16.6374 0.671613 16.5002 0.584777C16.363 0.497942 16.204 0.451843 16.0416 0.451843C15.8792 0.451843 15.7201 0.497942 15.5829 0.584777C15.4457 0.671613 15.336 0.795618 15.2665 0.942371V0.946659Z" fill="#2684FF"/>
    <defs>
        <linearGradient id="paint0_linear_1_6087" x1="13.8599" y1="17.1543" x2="5.81077" y2="31.0955" gradientUnits="userSpaceOnUse">
            <stop stop-color="#0052CC"/>
            <stop offset="0.92" stop-color="#2684FF"/>
        </linearGradient>
    </defs>
</svg>