<svg width="32" height="26" viewBox="0 0 32 26" fill="none" xmlns="http://www.w3.org/2000/svg">
    <path fill-rule="evenodd" clip-rule="evenodd" d="M6.88915 0.608307C5.10408 0.608307 3.7832 2.16204 3.84235 3.84702C3.89912 5.46583 3.82537 7.56243 3.29462 9.2722C2.76198 10.9868 1.86181 12.0733 0.391174 12.2128V13.7873C1.86181 13.927 2.76198 15.013 3.29456 16.7278C3.82537 18.4376 3.89906 20.5342 3.84229 22.153C3.78314 23.8377 5.10401 25.3917 6.88939 25.3917H25.1805C26.9656 25.3917 28.2862 23.838 28.227 22.153C28.1703 20.5342 28.244 18.4376 28.7748 16.7278C29.3074 15.013 30.2054 13.9266 31.6761 13.7873V12.2128C30.2055 12.073 29.3075 10.987 28.7748 9.2722C28.244 7.56267 28.1703 5.46583 28.227 3.84702C28.2862 2.16228 26.9656 0.608307 25.1805 0.608307H6.8889H6.88915ZM21.6013 15.8641C21.6013 18.1843 19.861 19.5914 16.973 19.5914H12.0567C11.9161 19.5914 11.7812 19.5358 11.6818 19.4369C11.5823 19.338 11.5265 19.2039 11.5265 19.0641V6.93602C11.5265 6.79616 11.5823 6.66204 11.6818 6.56315C11.7812 6.46426 11.9161 6.40871 12.0567 6.40871H16.945C19.3531 6.40871 20.9336 7.70589 20.9336 9.69749C20.9336 11.0954 19.8704 12.3468 18.5159 12.566V12.639C20.3597 12.8401 21.6013 14.11 21.6013 15.8641ZM16.4369 8.08026H13.6337V12.0178H15.9947C17.8199 12.0178 18.8262 11.2869 18.8262 9.98053C18.8261 8.75626 17.9608 8.08026 16.4369 8.08026ZM13.6337 13.5801V17.9193H16.5401C18.4404 17.9193 19.4469 17.161 19.4469 15.736C19.4469 14.3109 18.4121 13.5798 16.4179 13.5798H13.6337V13.5801Z" fill="#7952B3"/>
</svg>