<svg width="33" height="32" viewBox="0 0 33 32" fill="none" xmlns="http://www.w3.org/2000/svg">
    <path d="M16.4694 0.82843C7.83135 0.82843 0.826843 7.7928 0.826843 16.384C0.826843 23.257 5.30889 29.0879 11.5242 31.1448C12.3059 31.2888 12.593 30.8074 12.593 30.3965C12.593 30.0256 12.5784 28.8001 12.5718 27.5003C8.21988 28.4413 7.30161 25.665 7.30161 25.665C6.59006 23.8669 5.56481 23.3889 5.56481 23.3889C4.14563 22.4234 5.67179 22.4432 5.67179 22.4432C7.2426 22.553 8.06972 24.0463 8.06972 24.0463C9.46486 26.4244 11.7291 25.7368 12.6217 25.3395C12.762 24.3339 13.1675 23.6478 13.6148 23.2594C10.1405 22.8659 6.48799 21.5321 6.48799 15.5716C6.48799 13.8734 7.09906 12.4857 8.09978 11.3963C7.93735 11.0045 7.40196 9.42236 8.25129 7.27967C8.25129 7.27967 9.56484 6.86158 12.5541 8.87421C13.8018 8.52944 15.14 8.35669 16.4694 8.35083C17.7987 8.35669 19.1379 8.52944 20.3881 8.87421C23.3738 6.86158 24.6855 7.27967 24.6855 7.27967C25.5369 9.42236 25.0013 11.0045 24.8388 11.3963C25.8417 12.4857 26.4487 13.8733 26.4487 15.5716C26.4487 21.5462 22.7893 22.8619 19.3061 23.2469C19.8672 23.7297 20.3671 24.6764 20.3671 26.1276C20.3671 28.2089 20.3489 29.8841 20.3489 30.3965C20.3489 30.8104 20.6305 31.2955 21.4235 31.1428C27.6354 29.0835 32.1118 23.2547 32.1118 16.384C32.1118 7.7928 25.1082 0.82843 16.4694 0.82843Z" fill="#161614"/>
    <path d="M6.68544 22.9878C6.65109 23.065 6.52866 23.0882 6.41738 23.0352C6.3039 22.9845 6.24011 22.8791 6.27691 22.8015C6.31065 22.7219 6.43309 22.6997 6.54632 22.7532C6.66005 22.8038 6.72483 22.9102 6.68544 22.9878ZM7.45491 23.6705C7.38031 23.7393 7.23445 23.7073 7.13544 23.5986C7.03312 23.4902 7.01399 23.3452 7.08968 23.2753C7.1666 23.2067 7.30805 23.2387 7.41062 23.3473C7.51293 23.457 7.53281 23.6011 7.45478 23.6706L7.45491 23.6705ZM7.98281 24.544C7.88687 24.6103 7.73008 24.5482 7.63328 24.4098C7.53747 24.2716 7.53747 24.1057 7.63537 24.0392C7.73253 23.9727 7.88687 24.0325 7.98501 24.1697C8.08071 24.3104 8.0807 24.4763 7.98268 24.5441L7.98281 24.544ZM8.87544 25.5558C8.78968 25.6497 8.60713 25.6246 8.47341 25.4962C8.33674 25.3708 8.29859 25.1928 8.38459 25.0988C8.47132 25.0046 8.65498 25.031 8.78968 25.1583C8.92549 25.2835 8.96696 25.4628 8.87556 25.5558H8.87544ZM10.0291 25.8974C9.99148 26.0191 9.81555 26.0745 9.6384 26.0228C9.46149 25.9695 9.34568 25.8267 9.38138 25.7036C9.41818 25.581 9.59484 25.5233 9.77335 25.5787C9.95001 25.6318 10.0661 25.7734 10.0293 25.8974H10.0291ZM11.3423 26.0422C11.3467 26.1705 11.1965 26.2769 11.0105 26.2792C10.8234 26.2833 10.6721 26.1794 10.6702 26.0533C10.6702 25.9237 10.817 25.8183 11.004 25.8153C11.19 25.8116 11.3423 25.9147 11.3423 26.0422ZM12.6322 25.993C12.6545 26.1182 12.5252 26.2468 12.3406 26.2809C12.159 26.3139 11.9909 26.2367 11.9678 26.1126C11.9452 25.9842 12.0769 25.8558 12.2581 25.8225C12.4431 25.7905 12.6086 25.8658 12.6322 25.993Z" fill="#161614"/>
</svg>