<svg width="32" height="30" viewBox="0 0 32 30" fill="none" xmlns="http://www.w3.org/2000/svg">
    <path d="M16.0001 29.3294L21.7285 11.6991H10.2715L15.9999 29.3294H16.0001Z" fill="#E24329"/>
    <path d="M16 29.3293L10.2715 11.699H2.24329L16 29.3293Z" fill="#FC6D26"/>
    <path d="M2.24328 11.699L0.502516 17.0568C0.425116 17.295 0.425105 17.5515 0.502485 17.7897C0.579865 18.0279 0.730664 18.2355 0.933269 18.3827L16 29.3294L2.24316 11.6991L2.24328 11.699Z" fill="#FCA326"/>
    <path d="M2.24329 11.699H10.2715L6.82141 1.08038C6.64386 0.533976 5.87088 0.534098 5.69345 1.08038L2.24329 11.699Z" fill="#E24329"/>
    <path d="M16.0001 29.3293L21.7285 11.699H29.7568L15.9999 29.3293H16.0001Z" fill="#FC6D26"/>
    <path d="M29.7568 11.699L31.4976 17.0568C31.5749 17.295 31.5749 17.5516 31.4975 17.7897C31.4201 18.0279 31.2693 18.2355 31.0667 18.3827L16.0001 29.3294L29.7568 11.6991V11.699Z" fill="#FCA326"/>
    <path d="M29.7568 11.699H21.7285L25.1787 1.08038C25.3562 0.533976 26.1292 0.534098 26.3066 1.08038L29.7568 11.699Z" fill="#E24329"/>
</svg>