<svg width="33" height="32" viewBox="0 0 33 32" fill="none" xmlns="http://www.w3.org/2000/svg">
    <g clip-path="url(#clip0_1_5855)">
        <path d="M0.826843 0.513969H32.1118V31.7989H0.826843V0.513969Z" fill="#6762A5"/>
        <path d="M18.5654 25.1652V15.3117C18.5654 15.3117 19.2061 12.9541 10.6704 16.2766C10.6553 16.3191 10.6553 7.16389 10.6553 7.16389L13.4447 7.14637V13.0117C13.4447 13.0117 21.2534 9.93573 21.2534 15.3443V25.1652H18.5654ZM20.1547 10.6966H17.1964C18.2613 9.39513 19.2249 7.16389 19.2249 7.16389H22.2833C22.2845 7.16389 21.7602 8.61801 20.1547 10.6966ZM10.7054 25.149V19.5377L13.511 22.3433L10.7054 25.149Z" fill="white"/>
    </g>
    <defs>
        <clipPath id="clip0_1_5855">
            <rect width="31.2849" height="31.2849" fill="white" transform="translate(0.826843 0.513969)"/>
        </clipPath>
    </defs>
</svg>