<svg width="80" height="80" viewBox="0 0 32 30" fill="none" xmlns="http://www.w3.org/2000/svg">
    <path d="M2.26677 20.6337C2.29658 20.7012 2.33029 20.7634 2.36658 20.8256C2.38344 20.8619 2.40677 20.8995 2.42751 20.9332C2.46121 21.0006 2.49751 21.0654 2.53251 21.1302L2.73603 21.4725C2.77363 21.536 2.80992 21.5982 2.8527 21.6604C2.924 21.7823 3.00826 21.9015 3.08215 22.0234C3.11585 22.0739 3.14696 22.1245 3.18456 22.1751C3.32715 22.3967 3.45678 22.5808 3.59549 22.7597C3.69401 22.8932 3.79252 23.0241 3.89882 23.1551C3.93382 23.2043 3.97271 23.2536 4.00901 23.3028L4.29549 23.6503C4.33049 23.6904 4.36549 23.7371 4.40309 23.7786C4.53013 23.9316 4.66494 24.0793 4.79976 24.2297C4.79976 24.2323 4.80365 24.2349 4.80624 24.2388C4.97346 24.4488 5.15365 24.6355 5.35069 24.8014L5.35588 24.8066C5.45958 24.9129 5.56328 25.0179 5.67347 25.1216L5.8044 25.2473C5.94829 25.3821 6.09218 25.5156 6.24385 25.6453C6.24644 25.6453 6.24774 25.6479 6.25033 25.6492L6.32422 25.714C6.45644 25.8293 6.58996 25.9434 6.72608 26.0497L6.88811 26.1858C6.9983 26.274 7.11238 26.3569 7.22515 26.4438L7.40145 26.5786C7.52201 26.6694 7.65034 26.7575 7.77349 26.8457C7.81886 26.8781 7.86424 26.9105 7.9109 26.9403L7.9485 26.9701L8.31276 27.2086L8.46832 27.3123C8.65887 27.4342 8.84813 27.5483 9.0374 27.6623C9.09184 27.6896 9.14629 27.7194 9.19684 27.7505C9.33684 27.8308 9.48203 27.9125 9.62333 27.9864C9.70111 28.0305 9.78148 28.0681 9.86185 28.1083C9.95907 28.1627 10.0602 28.2159 10.1639 28.2703C10.1924 28.2794 10.2157 28.2884 10.2391 28.3014L10.2443 28.2962C10.287 28.3157 10.3272 28.3364 10.3687 28.3572C10.5243 28.4349 10.6863 28.5088 10.8548 28.5814C10.8859 28.5944 10.9196 28.6073 10.9533 28.6255C11.14 28.7072 11.3267 28.7849 11.5198 28.8601C11.5639 28.8731 11.6106 28.8951 11.6559 28.912C11.8309 28.9781 12.0111 29.0455 12.19 29.109L12.2548 29.1323C12.4532 29.1998 12.6489 29.2646 12.8511 29.3255C12.8978 29.3385 12.9458 29.3553 12.995 29.3683C13.2011 29.4305 13.4008 29.5044 13.6095 29.5433C26.9265 31.9583 30.796 21.5762 30.796 21.5762C27.5448 25.7892 21.7749 26.9001 16.311 25.6634C16.1088 25.6168 15.9065 25.5519 15.7017 25.4923C15.4126 25.4105 15.126 25.3201 14.8423 25.2214L14.9654 25.259L14.8851 25.2279C14.7088 25.1682 14.5389 25.1021 14.3665 25.036C14.3243 25.0181 14.2815 25.0017 14.2382 24.9867L14.2239 24.9829C14.0334 24.9064 13.848 24.8286 13.6639 24.7469C13.6237 24.734 13.59 24.7158 13.5499 24.7003C13.3318 24.6052 13.1157 24.5058 12.9017 24.4021L13.0806 24.4812C13.0339 24.4606 12.9881 24.4381 12.9432 24.4138C12.8213 24.3567 12.6995 24.2919 12.5802 24.231C12.4894 24.188 12.3999 24.1421 12.3119 24.0936L12.3378 24.1066C12.1913 24.0288 12.0448 23.9445 11.8971 23.8654C11.853 23.8343 11.8024 23.8084 11.7519 23.7799C11.5322 23.6522 11.3152 23.52 11.1011 23.3832L11.1828 23.4325C11.1279 23.3986 11.0743 23.3627 11.022 23.3249L11.0298 23.3301C10.8905 23.2445 10.7539 23.1546 10.6202 23.0604C10.5761 23.0319 10.5359 23.0008 10.4906 22.9697C10.3509 22.8744 10.2134 22.7758 10.0783 22.6741L10.1094 22.6962C10.055 22.6521 9.99667 22.6106 9.93833 22.5678C9.82426 22.4784 9.70888 22.3928 9.59481 22.2995L9.44184 22.1777C9.27882 22.0479 9.1189 21.9144 8.96221 21.7771L8.96091 21.7758L8.51109 21.3675L8.38146 21.2456C8.27517 21.138 8.16628 21.0356 8.05739 20.9293L7.93164 20.7997C7.79743 20.6668 7.66647 20.5306 7.53886 20.3913L7.53108 20.3823L7.50905 20.3641C7.37179 20.2134 7.23653 20.0608 7.1033 19.9065C7.0683 19.8663 7.03589 19.8236 6.9996 19.7808L6.70533 19.4243C6.57269 19.2577 6.44303 19.0887 6.31644 18.9174L6.26459 18.8448C3.23381 14.7278 2.13714 9.04605 4.56253 4.38452L2.42103 7.09251C-0.33363 11.032 0.00729933 16.155 2.1138 20.3382C2.16177 20.4406 2.21492 20.5365 2.26677 20.6337Z" fill="#1266A9"/>
    <path d="M11.5444 14.9585L11.5302 14.9378L11.5185 14.9222L11.5444 14.9585Z" fill="black"/>
    <path d="M12.9937 16.6592L13.1104 16.7759C13.2582 16.9185 13.4098 17.0572 13.5641 17.1959L13.5835 17.2128C13.7391 17.3502 13.9141 17.4941 14.0943 17.6341L14.1215 17.6548C14.1656 17.6846 14.2032 17.7196 14.2459 17.7494C14.4274 17.8894 14.6102 18.0229 14.8008 18.1565L14.8202 18.1681C14.9006 18.2265 14.9861 18.2796 15.0769 18.3367C15.1132 18.36 15.1547 18.3911 15.1936 18.4144C15.331 18.5026 15.4658 18.5842 15.6045 18.6685C15.6265 18.6776 15.646 18.6892 15.6667 18.6983C15.7834 18.7696 15.9104 18.8383 16.0323 18.9005C16.075 18.9265 16.1165 18.9459 16.1606 18.9705C16.2474 19.0133 16.333 19.0587 16.416 19.1028L16.4575 19.1209C16.6325 19.2065 16.8113 19.2868 16.9863 19.3659C17.0304 19.3828 17.068 19.397 17.1056 19.4152C17.2495 19.4774 17.396 19.537 17.5399 19.5915C17.6047 19.6135 17.6656 19.6394 17.7265 19.6589C17.8588 19.7081 17.9975 19.7535 18.1284 19.7989L18.3099 19.8572C18.4991 19.9156 18.691 19.992 18.8919 20.0232C29.1755 21.7161 31.5556 13.8385 31.5556 13.8385C29.4128 16.9068 25.2659 18.3691 20.8468 17.227C20.6262 17.1714 20.4074 17.1087 20.1908 17.039L20.2647 17.0598C20.2025 17.0429 20.148 17.0235 20.0884 17.0053C19.9536 16.9587 19.8149 16.9133 19.684 16.8653L19.4973 16.7953C19.3521 16.737 19.2043 16.6826 19.063 16.6203C19.019 16.6009 18.9788 16.5879 18.9451 16.5685C18.7636 16.4868 18.5808 16.4064 18.4032 16.3209L18.1362 16.1822L17.9819 16.1044C17.8627 16.0422 17.7525 15.9774 17.6384 15.9113C17.6093 15.8976 17.5811 15.882 17.5541 15.8646L17.558 15.8659C17.4206 15.7803 17.278 15.6974 17.1458 15.6105C17.1017 15.5859 17.0615 15.5561 17.02 15.5301L16.7504 15.3551C16.5637 15.2255 16.381 15.0868 16.1956 14.952C16.1541 14.9144 16.1139 14.8833 16.0737 14.8496C14.1306 13.329 12.5983 11.251 11.8711 8.89823C11.105 6.45209 11.2735 3.7091 12.597 1.48334L10.9702 3.77521C8.97256 6.62839 9.08534 10.4421 10.6409 13.4599C10.9248 14.0174 11.2126 14.4879 11.5302 14.9364C11.8257 15.359 12.1524 15.8542 12.5465 16.1939C12.6865 16.3533 12.8369 16.505 12.9937 16.6592Z" fill="#1266A9"/>
    <path d="M3.60197 22.7674L3.59678 22.7597L3.58771 22.748L3.60197 22.7674ZM8.99201 21.803L9.00497 21.8121L9.00757 21.8159L8.99201 21.803Z" fill="black"/>
    <path d="M18.1595 1.29406C16.9812 3.01426 16.8684 5.15057 17.6799 7.04707C18.5419 9.06154 20.3036 10.643 22.357 11.3923C22.4412 11.4247 22.5229 11.4519 22.6098 11.483L22.7238 11.518C22.8431 11.5556 22.9636 11.5997 23.0868 11.6269C28.7659 12.7171 30.3034 8.72579 30.7169 8.13857C29.3648 10.0701 27.0976 10.5341 24.3157 9.86136C24.0738 9.80238 23.8357 9.72878 23.6027 9.64099L23.6455 9.65525C23.3556 9.55492 23.0717 9.43806 22.7951 9.30524L22.8444 9.32728C22.3129 9.06802 21.8566 8.78802 21.4327 8.46653C18.9464 6.58688 17.409 3.00778 19.0319 0.0923767L18.1595 1.29406Z" fill="#1266A9"/>
</svg>