<svg width="32" height="32" viewBox="0 0 32 32" fill="none" xmlns="http://www.w3.org/2000/svg">
    <path d="M28.8336 24.4763C27.1314 24.4335 25.8122 24.6053 24.7057 25.0778C24.3865 25.2065 23.8758 25.2067 23.8332 25.6148C24.0035 25.7867 24.0248 26.0659 24.1737 26.3021C24.4293 26.7316 24.8758 27.3116 25.2802 27.6124C25.7269 27.956 26.1739 28.2996 26.6418 28.6003C27.4718 29.1158 28.4081 29.4164 29.2166 29.932C29.6849 30.2325 30.1527 30.6194 30.6209 30.9415C30.8549 31.1131 31.0038 31.3926 31.3018 31.4998V31.4355C31.1527 31.2421 31.1102 30.9629 30.9613 30.7481C30.7488 30.5333 30.5357 30.34 30.3229 30.1252C29.7059 29.2877 28.94 28.5573 28.1102 27.956C27.4293 27.4834 25.9397 26.8391 25.6632 26.0443C25.6632 26.0443 25.6418 26.0229 25.6206 26.0015C26.0887 25.9585 26.6418 25.7867 27.0888 25.6578C27.8123 25.4643 28.4718 25.5074 29.2166 25.3141C29.557 25.2282 29.8975 25.1207 30.2378 25.0133V24.8201C29.855 24.4335 29.5784 23.9181 29.1741 23.5529C28.0889 22.6076 26.8972 21.6842 25.6632 20.911C25.0035 20.4814 24.1523 20.2021 23.4502 19.8371C23.1951 19.708 22.7693 19.6437 22.6205 19.4289C22.2373 18.9565 22.0245 18.3336 21.748 17.7751C21.1311 16.5937 20.5352 15.2836 20.0032 14.0379C19.6204 13.2002 19.3863 12.3624 18.9181 11.5894C16.7265 7.93797 14.3434 5.72568 10.6837 3.55622C9.89634 3.10525 8.96014 2.91192 7.9601 2.67575C7.42834 2.65415 6.89621 2.61131 6.36433 2.5897C6.02385 2.43934 5.68337 2.03132 5.38545 1.838C4.17285 1.06468 1.04479 -0.610462 0.151147 1.60183C-0.423416 2.99784 1.00235 4.37238 1.49155 5.08137C1.85356 5.57531 2.32147 6.13369 2.57684 6.6922C2.7258 7.05712 2.76824 7.44403 2.9172 7.83056C3.2578 8.77535 3.57676 9.82804 4.02376 10.7088C4.25784 11.1597 4.51308 11.6322 4.811 12.0403C4.98125 12.2765 5.27905 12.384 5.34301 12.7706C5.04521 13.2002 5.02381 13.8446 4.85344 14.3815C4.08748 16.8086 4.38552 19.8156 5.47057 21.5982C5.81093 22.135 6.61957 23.3167 7.70473 22.8655C8.66234 22.479 8.44954 21.2547 8.72594 20.1807C8.79002 19.9227 8.74746 19.7511 8.87502 19.5793V19.6224C9.17294 20.2236 9.47074 20.8037 9.74738 21.405C10.4071 22.4574 11.5559 23.5529 12.5134 24.2832C13.0243 24.6696 13.4285 25.3356 14.0669 25.5718V25.5073H14.0242C13.8965 25.314 13.705 25.2282 13.5349 25.0777C13.152 24.6913 12.7262 24.2187 12.4284 23.7891C11.5349 22.5861 10.7474 21.2545 10.0453 19.8799C9.70494 19.2142 9.4069 18.4839 9.13038 17.8181C9.00258 17.5601 9.00258 17.1737 8.7899 17.0449C8.4707 17.5174 8.00266 17.9255 7.76858 18.5054C7.3645 19.4289 7.32181 20.5673 7.17285 21.7485C7.08773 21.7702 7.13017 21.7485 7.08761 21.7917C6.40689 21.6196 6.17281 20.911 5.91733 20.3095C5.27892 18.7846 5.17252 16.336 5.72593 14.5748C5.87489 14.1237 6.51329 12.7062 6.25793 12.2766C6.13025 11.8685 5.70453 11.6322 5.47057 11.3101C5.19405 10.902 4.896 10.3867 4.7046 9.93545C4.19388 8.73264 3.93852 7.40094 3.38536 6.19813C3.13 5.63963 2.68336 5.05989 2.32147 4.54435C1.91727 3.96449 1.47039 3.55622 1.15119 2.86896C1.04491 2.63279 0.895829 2.24613 1.06607 1.98836C1.10863 1.81651 1.19363 1.7522 1.36399 1.70923C1.64063 1.47282 2.428 1.77355 2.70439 1.90244C3.49176 2.22441 4.15132 2.52539 4.811 2.97636C5.1088 3.19117 5.42801 3.59931 5.81093 3.70671H6.25781C6.93877 3.85696 7.70461 3.74968 8.34302 3.94288C9.47086 4.30793 10.4921 4.84496 11.4071 5.42494C14.1946 7.20761 16.4923 9.74212 18.0458 12.7706C18.3011 13.2644 18.4074 13.7157 18.6415 14.231C19.0885 15.2836 19.6417 16.3575 20.0883 17.3885C20.5352 18.3978 20.9607 19.4289 21.5991 20.2667C21.9183 20.7175 23.1948 20.9539 23.7694 21.1902C24.195 21.3834 24.8547 21.5554 25.2376 21.7916C25.961 22.2424 26.6844 22.7582 27.3654 23.252C27.7058 23.5098 28.7696 24.0468 28.8336 24.4763Z" fill="#00546B"/>
    <path d="M7.13005 5.81136C6.76841 5.81136 6.51317 5.85456 6.25781 5.91888V5.96185H6.30037C6.47074 6.30554 6.76841 6.54183 6.98109 6.84244C7.15145 7.18601 7.30029 7.52983 7.47066 7.87353C7.49181 7.85192 7.51309 7.83056 7.51309 7.83056C7.81114 7.61563 7.95997 7.27206 7.95997 6.75652C7.83229 6.60627 7.81101 6.45591 7.70461 6.30554C7.57706 6.09061 7.30029 5.98333 7.13005 5.81136Z" fill="#00546B"/>
</svg>