<svg width="32" height="32" viewBox="0 0 32 32" fill="none" xmlns="http://www.w3.org/2000/svg">
    <path d="M19.0496 20.5787L11.4196 18.9843C11.3876 19.0461 11.3521 19.1059 11.3131 19.1635L18.2592 29.2961L18.6782 28.8776L19.8599 21.5289C19.6602 21.4445 19.4829 21.3147 19.3422 21.1497C19.2015 20.9847 19.1013 20.7892 19.0496 20.5786V20.5787ZM16.2662 10.6046C15.9803 11.0431 15.4869 11.3333 14.925 11.3333C14.8385 11.3333 14.7544 11.3245 14.6717 11.3114L11.1921 16.7559L20.4886 12.7552C20.4857 12.7178 20.4774 12.6828 20.4774 12.6444C20.4774 12.5661 20.4881 12.4903 20.5007 12.4155L16.2662 10.6047V10.6046ZM16.5189 9.61246L21.0233 11.5384C21.1668 11.4262 21.331 11.3433 21.5065 11.2944L22.2468 6.69098L19.4263 3.87048L16.2516 8.83822C16.4072 9.06838 16.4994 9.33546 16.5189 9.61258V9.61246ZM25.9572 10.4014L23.1305 7.57423L22.5161 11.3911C22.6719 11.4694 22.8118 11.5759 22.9288 11.7051L25.9572 10.4014ZM19.1847 19.5733C19.2953 19.3725 19.4543 19.2024 19.6471 19.0784C19.8399 18.9544 20.0607 18.8804 20.2893 18.8631L21.1011 13.814C21.0374 13.7717 20.9805 13.7211 20.9246 13.6691L11.5746 17.6931C11.5985 17.7908 11.615 17.8904 11.6228 17.994L19.1847 19.5733ZM26.7272 11.1719L23.4567 12.5792L31.5262 16.0291L31.5553 16L26.7272 11.1719ZM20.8828 21.5441L19.8999 27.6549L25.6072 21.9476L21.4963 21.0891C21.3386 21.2954 21.126 21.4531 20.8828 21.5441ZM9.78919 19.973C9.5826 19.973 9.38475 19.9375 9.19955 19.8747L7.30374 22.8415L6.57119 22.1095L8.36685 19.2998C8.32244 19.2447 8.28106 19.1872 8.2429 19.1276L4.98989 20.5282L4.21881 19.7571L7.77952 18.2244L1.34217 16.8808L0.461716 16L0.740253 15.7214L8.16366 17.2711C8.24903 17.1092 8.35834 16.9611 8.48789 16.8317L4.88489 11.5763L5.61259 10.8486L9.37685 16.3398C9.51203 16.3084 9.6503 16.2922 9.78907 16.2916C9.94803 16.2916 10.1021 16.314 10.2494 16.3519L13.7718 10.8404C13.4851 10.5429 13.3249 10.1457 13.3251 9.73253C13.3251 9.60614 13.3411 9.48364 13.3689 9.36601L8.97448 7.48722L9.74532 6.71626L13.9088 8.49685C14.1199 8.32285 14.3723 8.20609 14.6416 8.15782C14.9109 8.10955 15.188 8.13139 15.4465 8.22123L18.6941 3.13841L16.0003 0.444427L0.444702 16L16.0003 31.5555L17.531 30.0248L10.5329 19.8154C10.2987 19.9192 10.0454 19.9729 9.78919 19.973ZM22.0913 14.0316L21.2654 19.1645C21.4097 19.2805 21.5292 19.4243 21.6168 19.5874C21.7044 19.7506 21.7583 19.9296 21.7753 20.114L26.4628 21.0925L30.7551 16.8002L23.0076 13.4878C22.7859 13.7829 22.4565 13.9785 22.0913 14.0317V14.0316Z" fill="#25C7B7"/>
</svg>