<svg width="80" height="80" viewBox="0 0 32 32" fill="none" xmlns="http://www.w3.org/2000/svg">
    <path d="M28.6654 6.49239C26.7743 4.05722 24.1996 2.23443 21.2667 1.25454C18.3339 0.274654 15.1747 0.181689 12.1887 0.987403C9.20271 1.79312 6.52406 3.46132 4.49153 5.78103C2.45899 8.10074 1.16386 10.9678 0.769937 14.0195C0.376016 17.0712 0.900996 20.1706 2.27848 22.9256C3.65597 25.6806 5.82409 27.9675 8.50863 29.497C11.1932 31.0266 14.2736 31.7301 17.3602 31.5186C20.4468 31.3071 23.4011 30.1901 25.8493 28.3089C32.683 23.057 33.9442 13.2906 28.6649 6.49239H28.6654Z" fill="#FF6C37"/>
    <path d="M21.5608 10.356L14.9651 16.967L13.1013 15.0615C19.5928 8.60599 20.2444 9.18932 21.5613 10.356H21.5608Z" fill="white"/>
    <path d="M14.9652 17.1478C14.9067 17.1464 14.851 17.1234 14.8087 17.0832L12.9317 15.2165C12.8894 15.173 12.8658 15.1149 12.8658 15.0544C12.8658 14.9939 12.8894 14.9358 12.9317 14.8923C19.3318 8.52771 20.2053 8.8257 21.7173 10.1868C21.7426 10.2069 21.7628 10.2327 21.7764 10.2619C21.79 10.2912 21.7965 10.3232 21.7955 10.3555C21.8052 10.4187 21.7808 10.4833 21.7305 10.5242L15.1348 17.0837C15.0885 17.1258 15.0279 17.149 14.9652 17.1483V17.1478ZM13.4268 15.061L14.9652 16.5908L21.2221 10.3686C21.006 10.0994 20.6978 9.91878 20.3563 9.86138C20.0147 9.80398 19.6639 9.8738 19.3709 10.0575C18.2368 10.563 16.4121 12.1055 13.4268 15.061Z" fill="#FF6C37"/>
    <path d="M16.8554 18.7947L15.0565 16.967L21.6522 10.4853C23.4252 12.2095 20.7919 15.0872 16.8554 18.7943V18.7947Z" fill="white"/>
    <path d="M16.8554 19.0281C16.7977 19.0235 16.743 19.0009 16.699 18.9634L14.861 17.1746C14.8335 17.1081 14.8335 17.0335 14.861 16.967C14.8415 16.9124 14.8415 16.8529 14.861 16.7983L21.4567 10.2393C21.5026 10.1964 21.5632 10.1726 21.6261 10.1726C21.689 10.1726 21.7496 10.1964 21.7955 10.2393C22.0091 10.4348 22.1778 10.6738 22.2903 10.9399C22.4027 11.2061 22.4562 11.4932 22.4471 11.7817C22.4471 13.5317 20.4395 15.7352 17.0246 18.9503C16.9789 18.9952 16.9189 19.0227 16.8549 19.0281H16.8554ZM15.3953 16.967L16.8681 18.4311C19.475 15.9812 21.9651 13.4534 21.9778 11.7423C21.992 11.3796 21.8714 11.0244 21.6391 10.7444L15.3953 16.967Z" fill="#FF6C37"/>
    <path d="M13.1531 15.1004L14.4568 16.3968C14.4651 16.4041 14.4718 16.4131 14.4763 16.4232C14.4809 16.4332 14.4833 16.4441 14.4833 16.4552C14.4833 16.4662 14.4809 16.4771 14.4763 16.4872C14.4718 16.4972 14.4651 16.5062 14.4568 16.5135L11.7062 17.0968C11.6507 17.1087 11.5927 17.1023 11.5412 17.0784C11.4897 17.0546 11.4475 17.0147 11.4209 16.9647C11.3944 16.9148 11.3849 16.8576 11.3941 16.8019C11.4032 16.7461 11.4304 16.6949 11.4715 16.6559L13.0749 15.0746C13.0749 15.0746 13.1272 15.0746 13.1531 15.1004Z" fill="white"/>
    <path d="M11.6411 17.3559C11.5542 17.3548 11.4691 17.3316 11.3938 17.2884C11.3184 17.2453 11.2555 17.1837 11.211 17.1094C11.1609 17.0154 11.1427 16.9078 11.1592 16.8027C11.1756 16.6975 11.2259 16.6005 11.3024 16.5261L12.8925 14.9317C12.9499 14.8807 13.0241 14.8525 13.101 14.8525C13.1779 14.8525 13.2521 14.8807 13.3095 14.9317L14.6132 16.2281C14.6904 16.3011 14.7207 16.4114 14.6914 16.5135C14.6621 16.6156 14.576 16.6967 14.47 16.721L11.7194 17.3044L11.6411 17.3559ZM13.1013 15.3857L11.6284 16.8504L14.0662 16.3317L13.1013 15.3857Z" fill="#FF6C37"/>
    <path d="M25.0677 6.71309C24.1242 5.80795 22.6421 5.77004 21.6527 6.62413C20.6633 7.47822 20.4942 8.94431 21.2646 9.99917C22.035 11.054 23.4873 11.3496 24.6116 10.6797L22.8386 8.91661L25.0677 6.71309Z" fill="white"/>
    <path d="M23.3079 11.2757C22.7659 11.2688 22.2379 11.1034 21.7897 10.8002C21.3415 10.4969 20.993 10.0693 20.7875 9.57043C20.5822 9.07197 20.5283 8.52458 20.6326 7.996C20.7368 7.46741 20.9946 6.98082 21.3741 6.59642C21.896 6.08697 22.5981 5.80154 23.3294 5.80154C24.0607 5.80154 24.7628 6.08697 25.2847 6.59642C25.3346 6.63823 25.3629 6.69996 25.3629 6.7651C25.3628 6.79715 25.3558 6.8288 25.3423 6.8579C25.3288 6.887 25.3091 6.91288 25.2847 6.93378L23.173 8.9171L24.7763 10.4858C24.8023 10.5104 24.8218 10.5411 24.8331 10.575C24.8445 10.6088 24.8473 10.645 24.8413 10.6802C24.8375 10.7142 24.8262 10.7469 24.8082 10.7761C24.7902 10.8052 24.766 10.8301 24.7372 10.8489C24.3065 11.1166 23.8113 11.2644 23.3035 11.2767L23.3079 11.2757ZM23.3079 6.24594C22.3791 6.2508 21.5481 6.80642 21.1996 7.65565C20.8511 8.50488 21.0407 9.48244 21.6918 10.1348C22.0157 10.4587 22.4304 10.6779 22.8816 10.7635C23.3328 10.8491 23.7995 10.7972 24.2205 10.6146L22.6822 9.08481C22.6577 9.06536 22.638 9.04069 22.6244 9.01263C22.6109 8.98457 22.6038 8.95383 22.6038 8.92269C22.6038 8.89155 22.6109 8.86081 22.6244 8.83275C22.638 8.80469 22.6577 8.78002 22.6822 8.76057L24.7157 6.72524C24.3115 6.41716 23.8172 6.2487 23.3079 6.24545V6.24594Z" fill="#FF6C37"/>
    <path d="M25.1067 6.75197L22.8777 8.95548L24.6507 10.7186C24.8291 10.6167 24.9952 10.4949 25.1458 10.3555C25.6105 9.86704 25.8662 9.21819 25.8589 8.54586C25.8516 7.87352 25.5819 7.23031 25.1067 6.75197Z" fill="white"/>
    <path d="M24.6111 10.9131C24.5818 10.9146 24.5525 10.9096 24.5255 10.8985C24.4984 10.8873 24.4742 10.8702 24.4547 10.8484L22.6817 9.08529C22.6572 9.06585 22.6375 9.04118 22.6239 9.01311C22.6104 8.98505 22.6033 8.95431 22.6033 8.92317C22.6033 8.89204 22.6104 8.8613 22.6239 8.83323C22.6375 8.80517 22.6572 8.7805 22.6817 8.76106L24.8975 6.59642C24.9189 6.56433 24.948 6.53801 24.9821 6.5198C25.0162 6.50159 25.0543 6.49207 25.0931 6.49207C25.1318 6.49207 25.1699 6.50159 25.204 6.5198C25.2381 6.53801 25.2672 6.56433 25.2886 6.59642C25.5487 6.84988 25.7554 7.15241 25.8965 7.48629C26.0375 7.82017 26.1102 8.17869 26.1102 8.54085C26.1102 8.90301 26.0375 9.26153 25.8965 9.59541C25.7554 9.92929 25.5487 10.2318 25.2886 10.4853C25.1351 10.6471 24.9596 10.7867 24.767 10.8999C24.7185 10.9242 24.6625 10.9289 24.6106 10.9131H24.6111ZM23.1774 8.9171L24.6502 10.3817C24.7515 10.3111 24.8474 10.2331 24.9371 10.1484C25.3701 9.71902 25.6139 9.13628 25.6151 8.52821C25.6161 7.98403 25.4167 7.45834 25.0544 7.05044L23.1774 8.9171Z" fill="#FF6C37"/>
    <path d="M21.8346 10.6282C21.658 10.4633 21.4249 10.3715 21.1827 10.3715C20.9405 10.3715 20.7074 10.4633 20.5309 10.6282L14.6264 16.4868L15.604 17.4721L21.8478 12.0277C21.943 11.9369 22.0185 11.8278 22.0697 11.7069C22.1209 11.586 22.1467 11.456 22.1454 11.3249C22.1442 11.1937 22.116 11.0642 22.0625 10.9443C22.0091 10.8244 21.9315 10.7167 21.8346 10.6277V10.6282Z" fill="white"/>
    <path d="M15.5517 17.7059C15.4933 17.7045 15.4375 17.6814 15.3953 17.6413L14.4045 16.6559C14.3622 16.6124 14.3386 16.5543 14.3386 16.4938C14.3386 16.4333 14.3622 16.3752 14.4045 16.3317L20.3095 10.4853C20.4795 10.3163 20.6967 10.2021 20.9329 10.1574C21.169 10.1127 21.4132 10.1396 21.6338 10.2346C21.8544 10.3296 22.0412 10.4883 22.17 10.6901C22.2988 10.892 22.3637 11.1276 22.3562 11.3666C22.3494 11.5288 22.3101 11.688 22.2407 11.8349C22.1713 11.9818 22.0731 12.1134 21.9519 12.2221L15.7082 17.6665C15.6628 17.6985 15.6069 17.7124 15.5517 17.7054V17.7059ZM14.861 16.4867L15.5126 17.1479L21.639 11.8459C21.7906 11.7146 21.881 11.527 21.8869 11.3272C21.8927 11.1274 21.8136 10.932 21.6654 10.7959C21.5287 10.6604 21.3435 10.5844 21.1505 10.5844C20.9574 10.5844 20.7723 10.6604 20.6355 10.7959L14.861 16.4867Z" fill="#FF6C37"/>
    <path d="M10.051 23.1629C10.0344 23.1855 10.0254 23.2127 10.0254 23.2407C10.0254 23.2687 10.0344 23.296 10.051 23.3185L10.3116 24.4463C10.322 24.5126 10.3121 24.5806 10.2832 24.6413C10.2542 24.702 10.2076 24.7526 10.1493 24.7865C10.0912 24.8203 10.0238 24.8349 9.95691 24.8282C9.88997 24.8214 9.8269 24.7938 9.7768 24.7491L7.99113 23.038L13.5573 17.459H15.4867L16.7904 18.7554C14.7568 20.5236 12.4892 22.0065 10.051 23.1629Z" fill="white"/>
    <path d="M9.93371 25.0685C9.78609 25.0656 9.64042 25.0053 9.54266 24.8998L7.8352 23.2018C7.81074 23.1824 7.791 23.1577 7.77743 23.1297C7.76387 23.1016 7.75682 23.0709 7.75682 23.0397C7.75682 23.0086 7.76387 22.9778 7.77743 22.9498C7.791 22.9217 7.81074 22.8971 7.8352 22.8776L13.44 17.2908C13.4714 17.2576 13.5124 17.235 13.5574 17.2261H15.4994C15.5501 17.2083 15.6053 17.2083 15.6559 17.2261L16.9596 18.5226C16.9843 18.5453 17.0032 18.5737 17.0145 18.6053C17.0259 18.6368 17.0293 18.6707 17.0246 18.7039C17.0255 18.7361 17.0189 18.7681 17.0053 18.7973C16.9918 18.8266 16.9716 18.8524 16.9464 18.8726L16.8422 18.9635C14.8004 20.6563 12.554 22.0889 10.1552 23.2281L10.403 24.2781C10.4221 24.3591 10.4229 24.4433 10.4051 24.5246C10.3874 24.6059 10.3516 24.6823 10.3004 24.7481C10.2492 24.8139 10.1839 24.8675 10.1092 24.9051C10.0345 24.9426 9.95235 24.963 9.8687 24.965L9.93371 25.0685ZM8.34357 23.0332L9.88141 24.5756C9.89574 24.5883 9.91427 24.5953 9.93347 24.5953C9.95267 24.5953 9.9712 24.5883 9.98553 24.5756C9.99512 24.5623 10.0003 24.5464 10.0003 24.5301C10.0003 24.5138 9.99512 24.4979 9.98553 24.4847L9.72499 23.3569C9.70445 23.276 9.71271 23.1905 9.74834 23.1149C9.78398 23.0393 9.84481 22.9783 9.92052 22.9423C12.2549 21.8182 14.4434 20.4166 16.438 18.7681L15.3689 17.7049H13.6224L8.34357 23.0332Z" fill="#FF6C37"/>
    <path d="M6.64881 24.3685L7.9525 23.072L9.96009 25.0685L6.76662 24.8482C6.71179 24.844 6.65972 24.8226 6.61783 24.7871C6.57595 24.7517 6.5464 24.704 6.53339 24.6509C6.52038 24.5977 6.52459 24.5418 6.5454 24.4912C6.56622 24.4406 6.60258 24.3978 6.6493 24.3689L6.64881 24.3685Z" fill="white"/>
    <path d="M9.99871 25.2629L6.81795 25.0427C6.62927 25.0252 6.46698 24.8969 6.4005 24.7253C6.33402 24.5537 6.37459 24.35 6.50511 24.2129L7.80879 22.9165C7.85254 22.8745 7.91099 22.851 7.97181 22.851C8.03264 22.851 8.09109 22.8745 8.13483 22.9165L10.1292 24.8998C10.1568 24.9374 10.1717 24.9828 10.1717 25.0294C10.1717 25.0759 10.1568 25.1213 10.1292 25.1589C10.0991 25.2074 10.0529 25.244 9.99871 25.2624V25.2629ZM6.81795 24.5372L9.42483 24.7059L7.99112 23.3705L6.81795 24.5372Z" fill="#FF6C37"/>
    <path d="M15.669 17.6155L13.0358 18.0175L14.5609 16.514L15.669 17.6155Z" fill="white"/>
    <path d="M13.0358 18.263C12.992 18.2641 12.9489 18.2524 12.9118 18.2294C12.8746 18.2063 12.8452 18.1728 12.827 18.1332C12.7993 18.0957 12.7843 18.0503 12.7843 18.0037C12.7843 17.9571 12.7993 17.9117 12.827 17.8741L14.339 16.3574C14.3848 16.3146 14.4454 16.2907 14.5083 16.2907C14.5713 16.2907 14.6318 16.3146 14.6777 16.3574L15.7863 17.459C15.8085 17.4939 15.8202 17.5344 15.8202 17.5756C15.8202 17.6169 15.8085 17.6574 15.7863 17.6923C15.7755 17.7349 15.7525 17.7734 15.7201 17.8034C15.6878 17.8333 15.6475 17.8533 15.604 17.861L12.9971 18.263H13.0358ZM14.5609 16.8499L13.7138 17.6923L15.1738 17.4721L14.5609 16.8499Z" fill="#FF6C37"/>
    <path d="M15.669 17.6145L13.8311 17.8479C13.7819 17.859 13.7304 17.854 13.6843 17.8337C13.6382 17.8135 13.5998 17.7789 13.575 17.7353C13.5501 17.6916 13.5401 17.6412 13.5463 17.5914C13.5526 17.5417 13.5748 17.4952 13.6096 17.459L14.5614 16.5125L15.669 17.6145Z" fill="white"/>
    <path d="M13.7788 18.0948C13.6936 18.094 13.6101 18.0708 13.5369 18.0275C13.4636 17.9842 13.4032 17.9224 13.3618 17.8484C13.312 17.7596 13.2927 17.6572 13.3069 17.5565C13.321 17.4559 13.3677 17.3626 13.44 17.2908L14.3918 16.3443C14.4376 16.3015 14.4982 16.2776 14.5611 16.2776C14.6241 16.2776 14.6847 16.3015 14.7305 16.3443L15.8387 17.4463C15.8716 17.4774 15.8948 17.5173 15.9054 17.5612C15.916 17.6051 15.9136 17.6511 15.8985 17.6936C15.8833 17.7362 15.8561 17.7735 15.82 17.8009C15.784 17.8284 15.7407 17.8449 15.6955 17.8484L13.8707 18.0817L13.7788 18.0948ZM13.7788 17.615L15.1607 17.4463L14.5482 16.8372L13.7661 17.615H13.7788ZM25.1195 8.24286C25.0949 8.20196 25.0561 8.17144 25.0104 8.1571C24.9647 8.14276 24.9153 8.1456 24.8716 8.16508C24.8501 8.17596 24.8309 8.19102 24.8153 8.20939C24.7997 8.22776 24.7879 8.24906 24.7807 8.27203C24.7662 8.31837 24.7708 8.36854 24.7934 8.41154C24.8848 8.60258 24.8594 8.82862 24.7284 8.99487C24.7121 9.01088 24.6994 9.03008 24.691 9.05125C24.6826 9.07243 24.6787 9.09511 24.6795 9.11785C24.68 9.16344 24.6974 9.20725 24.7284 9.24084C24.7619 9.25397 24.7991 9.25397 24.8325 9.24084C24.8629 9.24843 24.8947 9.24759 24.9246 9.23842C24.9546 9.22925 24.9814 9.21209 25.0021 9.18883C25.1095 9.05814 25.1775 8.89992 25.1982 8.73244C25.219 8.56497 25.1917 8.39507 25.1195 8.24237V8.24286Z" fill="#FF6C37"/>
</svg>